<?xml version="1.0" encoding="UTF-8" standalone="no"?>
<!-- Created with Inkscape (http://www.inkscape.org/) -->

<svg
   xmlns:dc="http://purl.org/dc/elements/1.1/"
   xmlns:cc="http://creativecommons.org/ns#"
   xmlns:rdf="http://www.w3.org/1999/02/22-rdf-syntax-ns#"
   xmlns:svg="http://www.w3.org/2000/svg"
   xmlns="http://www.w3.org/2000/svg"
   xmlns:sodipodi="http://sodipodi.sourceforge.net/DTD/sodipodi-0.dtd"
   xmlns:inkscape="http://www.inkscape.org/namespaces/inkscape"
   width="1000"
   height="1000"
   id="svg2"
   version="1.1"
   inkscape:version="0.48.4 r9939"
   sodipodi:docname="Final.svg">
  <defs
     id="defs4">
    <inkscape:perspective
       sodipodi:type="inkscape:persp3d"
       inkscape:vp_x="622.85714 : 849.03824 : 1"
       inkscape:vp_y="0 : 1000 : 0"
       inkscape:vp_z="744.09448 : 526.18109 : 1"
       inkscape:persp3d-origin="372.04724 : 350.78739 : 1"
       id="perspective2995" />
    <inkscape:perspective
       id="perspective2995-7"
       inkscape:persp3d-origin="372.04724 : 350.78739 : 1"
       inkscape:vp_z="744.09448 : 526.18109 : 1"
       inkscape:vp_y="0 : 1000 : 0"
       inkscape:vp_x="622.85714 : 849.03824 : 1"
       sodipodi:type="inkscape:persp3d" />
  </defs>
  <sodipodi:namedview
     id="base"
     pagecolor="#ffffff"
     bordercolor="#666666"
     borderopacity="1.0"
     inkscape:pageopacity="0.0"
     inkscape:pageshadow="2"
     inkscape:zoom="0.35355339"
     inkscape:cx="325.02552"
     inkscape:cy="565.03716"
     inkscape:document-units="px"
     inkscape:current-layer="layer1"
     showgrid="false"
     showguides="true"
     inkscape:guide-bbox="true"
     guidetolerance="10000"
     objecttolerance="10000"
     inkscape:window-width="1090"
     inkscape:window-height="644"
     inkscape:window-x="704"
     inkscape:window-y="191"
     inkscape:window-maximized="0"
     height="1000px" />
  <metadata
     id="metadata7">
    <rdf:RDF>
      <cc:Work
         rdf:about="">
        <dc:format>image/svg+xml</dc:format>
        <dc:type
           rdf:resource="http://purl.org/dc/dcmitype/StillImage" />
        <dc:title />
      </cc:Work>
    </rdf:RDF>
  </metadata>
  <g
     inkscape:label="Layer 1"
     inkscape:groupmode="layer"
     id="layer1"
     transform="translate(0,-52.362195)">
    <path
       style="opacity:0.75199998;fill:#666666;fill-opacity:1"
       d="m 499.99975,297.01819 c -45.74119,0 -88.67804,12.02998 -125.8125,33.08973 l 62.6875,108.67431 125.65625,0.0625 62.90625,-108.76804 c 0,0 0.0471,-0.0453 0.0625,-0.0625 0.0173,-0.0192 0.0312,-0.0625 0.0312,-0.0625 -37.0705,-20.96198 -79.90445,-32.9335 -125.53125,-32.9335 z m -129.5625,35.27697 C 295.84212,376.29658 245.57934,457.12037 244.656,549.76874 l 125.625,0.0312 62.875,-108.79928 -62.71875,-108.7055 z m 259.21875,0.0625 -62.78125,108.54932 62.8125,108.83054 125.65625,0.0625 C 754.43156,457.17885 704.20591,376.37691 629.656,332.35765 z m -385,222.03554 c 0.72292,92.62246 50.75756,173.48737 125.15625,217.66107 l 62.6875,-108.79928 -62.625,-108.83054 -125.21875,-0.0312 z m 385.09375,0.4062 -62.84375,108.7993 62.6875,108.7993 c 74.60828,-44.02613 124.8708,-124.88201 125.75,-217.56735 l -125.59375,-0.0312 z M 436.531,665.81717 373.781,774.36649 c 37.22888,21.20493 80.30809,33.3397 126.21875,33.3397 45.47246,0 88.17233,-11.8844 125.15625,-32.71478 l 0,-0.0312 -0.15625,-0.21873 -62.8125,-108.89307 -125.65625,-0.0312 z"
       id="path3870"
       inkscape:connector-curvature="0" />
    <path
       sodipodi:type="star"
       style="opacity:0.75199998;fill:#8a2be2;fill-opacity:1"
       id="path3023-3-6"
       sodipodi:sides="6"
       sodipodi:cx="291.42856"
       sodipodi:cy="300.93362"
       sodipodi:r1="343.04758"
       sodipodi:r2="297.08792"
       sodipodi:arg1="1.047518"
       sodipodi:arg2="1.5711168"
       inkscape:flatsided="true"
       inkscape:rounded="0"
       inkscape:randomized="0"
       d="M 462.85714,598.07649 119.80958,597.96656 -51.619001,300.8237 119.99998,3.7907586 463.04754,3.9006878 634.47612,301.04355 z"
       transform="matrix(0.366329,0,0,0.36628453,392.87969,442.06352)" />
  </g>
</svg>
